<?xml version="1.0" encoding="iso-8859-1"?>
<!-- Uploaded to: SVG Repo, www.svgrepo.com, Generator: SVG Repo Mixer Tools -->
<svg fill="#000000" height="800px" width="800px" version="1.1" id="Layer_1" xmlns="http://www.w3.org/2000/svg" xmlns:xlink="http://www.w3.org/1999/xlink" 
	 viewBox="0 0 512 512" xml:space="preserve">
<g>
	<g>
		<g>
			<path d="M470.326,13.676H41.674C18.695,13.676,0,32.371,0,55.35v290.097c0,22.979,18.695,41.674,41.674,41.674h147.094
				l-18.305,75.482h-22.615c-9.864,0-17.86,7.997-17.86,17.86c0,9.864,7.997,17.86,17.86,17.86c8.246,0,172.957,0,179.641,0h36.662
				c9.864,0,17.86-7.997,17.86-17.86c0-9.864-7.997-17.86-17.86-17.86h-22.615l-18.305-75.482h147.094
				c22.979,0,41.674-18.695,41.674-41.674V55.35C512,32.371,493.305,13.676,470.326,13.676z M207.219,462.605l18.305-75.482h60.951
				l18.306,75.482H207.219z M476.279,345.448c0,3.282-2.671,5.953-5.953,5.953c-7.106,0-422.963,0-428.651,0
				c-3.283,0-5.953-2.671-5.953-5.953v-29.679h440.558V345.448z M476.279,280.047H35.721V55.35c0-3.282,2.671-5.953,5.953-5.953
				h428.651c3.283,0,5.953,2.671,5.953,5.953V280.047z"/>
			<path d="M343.206,128.539h-33.137c0-35.297-26.345-56.628-54.067-56.628c-27.758,0-54.067,21.33-54.067,56.628h-33.137
				c-9.864,0-17.86,7.997-17.86,17.86v93.276c-0.001,9.864,7.994,17.86,17.859,17.86h174.41c9.864,0,17.86-7.997,17.86-17.86
				v-93.276C361.066,136.536,353.069,128.539,343.206,128.539z M256,107.63c9.158,0,18.346,6.386,18.346,20.907h-36.693
				C237.654,114.504,246.396,107.63,256,107.63z M325.344,221.813H186.656v-57.555h15.277v8.446c0,9.864,7.997,17.86,17.86,17.86
				c9.864,0,17.86-7.997,17.86-17.86v-8.446h36.693v8.446c0,9.864,7.997,17.86,17.86,17.86c9.864,0,17.86-7.997,17.86-17.86v-8.446
				h15.277V221.813z"/>
		</g>
	</g>
</g>
</svg>